<?xml version="1.0" encoding="utf-8"?>
<?xml-stylesheet type="text/xsl" href="rss1.xsl"?>
<rss version="2.0" xmlns:atom="http://www.w3.org/2005/Atom" xmlns:content="http://purl.org/rss/1.0/modules/content/" xmlns:dc="http://purl.org/dc/elements/1.1/" xmlns:media="http://search.yahoo.com/mrss/">
<channel>
 <title>Getty</title>
 <link>http://www.gettyimg.com/</link>
 <atom:link href="http://www.gettyimg.com/" rel="self" type="application/rss+xml" />

 
                <item>
                <title><![CDATA[【Requests】[REQ VID] - Kelly Clarkson - Today Show 09/22/23]]></title>
                <link><![CDATA[https://sharemania.us/threads/kelly-clarkson-today-show-09-22-23.228998/]]></link>
                <description><![CDATA[<article>
<blockquote class="messageText SelectQuoteContainer ugc baseHtml">
She sang today (09/22) on the "Today Show Citi Concert Series" the songs "Mine", "Favorite Kind of High", "Lighthouse" and "Since U Been Gone", PLEASE can someone share these video on high quality? <br>
<br>
I'm looking for but don't find yet with a really good quality 1080p or 720p with television quality<br>
<br>
<b>PLEASE IF YOU KNOW WHERE I CAN DOWNLOAD IT OR SHARE HERE, PLEASE SHARE</b> <img src="styles/default/xenforo/clear.png" class="mceSmilieSprite mceSmilie39" alt=":cry2:" title="Cry    :cry2:"><br>
<br>
<br>
<img src="https://parade.com/.image/t_share/MjAwOTgyMDQ0ODkxNjg2NTYy/celebrity-sightings-in-new-york-city---september-22-2023.jpg" class="bbCodeImage LbImage" alt="[​IMG]" data-url="https://parade.com/.image/t_share/MjAwOTgyMDQ0ODkxNjg2NTYy/celebrity-sightings-in-new-york-city---september-22-2023.jpg" style="">
<div class="messageTextEndMarker">&nbsp;</div>
</blockquote>
</article>]]></description>
                <author><![CDATA[Albert90]]></author>
                </item>

                
                <item>
                <title><![CDATA[【Cinema Center】WEB-DL - Paw Patrol - Season 9 - 1080p Netflix WEB-DL DDP5.1 x264-LAZY]]></title>
                <link><![CDATA[https://sharemania.us/threads/paw-patrol-season-9-1080p-netflix-web-dl-ddp5-1-x264-lazy.228999/]]></link>
                <description><![CDATA[<article>
<blockquote class="messageText SelectQuoteContainer ugc baseHtml">
Paw Patrol:<img src="https://i.imgur.com/cpwCcSu.jpg" class="bbCodeImage LbImage" alt="[​IMG]" data-url="https://i.imgur.com/cpwCcSu.jpg" style=""><br>
<br>
<div class="bbCodeBlock bbCodeQuote">
<aside>
<blockquote class="quoteContainer"><div class="quote"><i><b>Synopsis:</b></i><br>
PAW Patrol is a CG action-adventure for old children and preschool series starring a pack of six heroic puppies led by a tech-savvy 10-year-old boy named Ryder.</div><div class="quoteExpand">Click to expand...</div></blockquote>
</aside>
</div>
<div class="ToggleTriggerAnchor bbCodeSpoilerContainer">
<button type="button" class="button bbCodeSpoilerButton ToggleTrigger Tooltip JsOnly" data-target="> .SpoilerTarget"><span>Spoiler: <span class="SpoilerTitle">MediaInfo</span></span></button>
<div class="SpoilerTarget bbCodeSpoilerText">General<br>
Unique ID : 283033076240117564497392607461276022513 (0xD4EE300BAF2C3AE270407357702A76F1)<br>
Complete name : Paw.Patrol.S09E01E02.Liberty.Makes.a.New.Friend.-.Pups.Save.the.Pup.Pup.Boogie.Contest.1080p.NF.WEB-DL.DDP5.1.x264-LAZY.mkv<br>
Format : Matroska<br>
Format version : Version 4<br>
File size : 936 MiB<br>
Duration : 23 min 12 s<br>
Overall bit rate mode : Variable<br>
Overall bit rate : 5 639 kb/s<br>
Frame rate : 23.976 FPS<br>
Encoded date : 2023-09-19 16:58:15 UTC<br>
Writing application : mkvmerge v63.0.0 ('Everything') 32-bit<br>
Writing library : libebml v1.4.2 + libmatroska v1.6.4<br>
<br>
Video<br>
ID : 1<br>
Format : AVC<br>
Format/Info : Advanced Video Codec<br>
Format profile : Main@L4<br>
Format settings : CABAC / 3 Ref Frames<br>
Format settings, CABAC : Yes<br>
Format settings, Reference frames : 3 frames<br>
Codec ID : V_MPEG4/ISO/AVC<br>
Duration : 23 min 12 s<br>
Bit rate mode : Variable<br>
Bit rate : 5 000 kb/s<br>
Maximum bit rate : 7 500 kb/s<br>
Width : 1 920 pixels<br>
Height : 1 080 pixels<br>
Display aspect ratio : 16:9<br>
Frame rate mode : Constant<br>
Frame rate : 23.976 (24000/1001) FPS<br>
Color space : YUV<br>
Chroma subsampling : 4:2:0<br>
Bit depth : 8 bits<br>
Scan type : Progressive<br>
Bits/(Pixel*Frame) : 0.101<br>
Stream size : 830 MiB (89%)<br>
Writing library : x264 core 148 r2727 7d026e8<br>
Encoding settings : cabac=1 / ref=3 / deblock=1:0:0 / analyse=0x1:0x111 / me=umh / subme=10 / psy=1 / psy_rd=1.00:0.00 / mixed_ref=1 / me_range=24 / chroma_me=1 / trellis=2 / 8x8dct=0 / cqm=0 / deadzone=21,11 / fast_pskip=1 / chroma_qp_offset=-2 / threads=6 / lookahead_threads=1 / sliced_threads=0 / nr=0 / decimate=1 / interlaced=0 / bluray_compat=0 / stitchable=1 / constrained_intra=0 / bframes=2 / b_pyramid=0 / b_adapt=2 / b_bias=0 / direct=3 / weightb=1 / open_gop=0 / weightp=2 / keyint=240 / keyint_min=121 / scenecut=0 / intra_refresh=0 / rc_lookahead=48 / rc=2pass / mbtree=1 / bitrate=5000 / ratetol=1.0 / qcomp=0.50 / qpmin=6 / qpmax=51 / qpstep=4 / cplxblur=20.0 / qblur=0.5 / vbv_maxrate=7500 / vbv_bufsize=10000 / nal_hrd=vbr / filler=0 / ip_ratio=1.40 / aq=1:1.00<br>
Default : Yes<br>
Forced : No<br>
<br>
Audio<br>
ID : 2<br>
Format : E-AC-3<br>
Format/Info : Enhanced AC-3<br>
Commercial name : Dolby Digital Plus<br>
Codec ID : A_EAC3<br>
Duration : 23 min 12 s<br>
Bit rate mode : Constant<br>
Bit rate : 640 kb/s<br>
Channel(s) : 6 channels<br>
Channel layout : L R C LFE Ls Rs<br>
Sampling rate : 48.0 kHz<br>
Frame rate : 31.250 FPS (1536 SPF)<br>
Compression mode : Lossy<br>
Stream size : 106 MiB (11%)<br>
Language : English<br>
Service kind : Complete Main<br>
Default : Yes<br>
Forced : No<br>
<br>
Text<br>
ID : 3<br>
Format : UTF-8<br>
Codec ID : S_TEXT/UTF8<br>
Codec ID/Info : UTF-8 Plain Text<br>
Duration : 22 min 48 s<br>
Bit rate : 80 b/s<br>
Frame rate : 0.349 FPS<br>
Count of elements : 477<br>
Stream size : 13.5 KiB (0%)<br>
Title : SDH<br>
Language : English<br>
Default : No<br>
Forced : No<br>
<br>
Menu<br>
00:00:00.000 : en<img src="styles/default/xenforo/smilies/grimace-48.png" class="mceSmilie" alt=":p" title="Stick Out Tongue    :p">art 01<br>
00:22:40.450 : en:Credits</div>
</div><br>
Screenshots:<br>
<img src="https://i.imgur.com/Go7AU3E.jpg" class="bbCodeImage LbImage" alt="[​IMG]" data-url="https://i.imgur.com/Go7AU3E.jpg" style=""> <br>
<div class="bbCodeBlock bbCodeVfcHH HiddenContent">
<div class="attribution type">Hidden Content:</div>
<blockquote>You must either reply or click 'Like' to see the hidden information contained here.</blockquote>
</div>
<div class="messageTextEndMarker">&nbsp;</div>
</blockquote>
</article>]]></description>
                <author><![CDATA[LazyRips]]></author>
                </item>

                
                <item>
                <title><![CDATA[【HD Live Performances】HDTV - SISTAR - Intro / Alone Live @ SBS K-Pop Super Concert in America 11/10/2012 1080i HDTV DD2.0-XXI]]></title>
                <link><![CDATA[https://sharemania.us/threads/sistar-intro-alone-live-sbs-k-pop-super-concert-in-america-11-10-2012-1080i-hdtv-dd2-0-xxi.228997/]]></link>
                <description><![CDATA[<article>
<blockquote class="messageText SelectQuoteContainer ugc baseHtml">
<img src="https://imgur.com/JmcirUy.png" class="bbCodeImage LbImage" alt="[​IMG]" data-url="https://imgur.com/JmcirUy.png" style=""> <br>
<div style="text-align: center">
<div class="bbCodeBlock bbCodeVfcHH HiddenContent">
<div class="attribution type">Hidden Content:</div>
<blockquote>You must either reply or click 'Like' to see the hidden information contained here.</blockquote>
</div></div>
<div class="messageTextEndMarker">&nbsp;</div>
</blockquote>
</article>]]></description>
                <author><![CDATA[XXI]]></author>
                </item>

                </channel></rss>